# xmcd
#
# Track frame offsets:
#	150
#	18039
#	32875
#
# Disc length: 659 seconds
#
# Revision: 0
# Processed by: cddbd v1.5.1PL0 Copyright (c) Steve Scherf et al.
# Submitted via: dBpowerAMP V4.0
#
DISCID=17029103
DTITLE=Heather Small - Proud
DYEAR=2005
DGENRE=Pop/Soul
TTITLE0=Proud
TTITLE1=Don't Give Up The Fight
TTITLE2=Wonderful World
EXTD=
EXTT0=
EXTT1=
EXTT2=
PLAYORDER=
